PathFileType	4	(X/Y/Z)	s08c0001.trc
DataRate	CameraRate	NumFrames	NumMarkers	Units	OrigDataRate	OrigDataStartFrame	OrigNumFrames
200	200	4	49	mm	200	500	2000
Frame#	Time	racr			lacr			c7			jug			rlel			rdr			llel			ldr			s2			lic			ric			lasi			rasi			rpsi			lpsi			rgt			lgt			rth1			rth2			rth3			rth4			rlfc			rmfc			rsh1			rsh2			rsh3			rsh4			rlmal			rmmal			rcal			rtoe			rmt5			rmt1			lth1			lth2			lth4			lth3			llfc			lmfc			llmal			lmmal			lcal			lmt1			lmt5			lsh1			lsh2			lsh3			lsh4			ltoe			
		X1	Y1	Z1	X2	Y2	Z2	X3	Y3	Z3	X4	Y4	Z4	X5	Y5	Z5	X6	Y6	Z6	X7	Y7	Z7	X8	Y8	Z8	X9	Y9	Z9	X10	Y10	Z10	X11	Y11	Z11	X12	Y12	Z12	X13	Y13	Z13	X14	Y14	Z14	X15	Y15	Z15	X16	Y16	Z16	X17	Y17	Z17	X18	Y18	Z18	X19	Y19	Z19	X20	Y20	Z20	X21	Y21	Z21	X22	Y22	Z22	X23	Y23	Z23	X24	Y24	Z24	X25	Y25	Z25	X26	Y26	Z26	X27	Y27	Z27	X28	Y28	Z28	X29	Y29	Z29	X30	Y30	Z30	X31	Y31	Z31	X32	Y32	Z32	X33	Y33	Z33	X34	Y34	Z34	X35	Y35	Z35	X36	Y36	Z36	X37	Y37	Z37	X38	Y38	Z38	X39	Y39	Z39	X40	Y40	Z40	X41	Y41	Z41	X42	Y42	Z42	X43	Y43	Z43	X44	Y44	Z44	X45	Y45	Z45	X46	Y46	Z46	X47	Y47	Z47	X48	Y48	Z48	X49	Y49	Z49	
500	2.5000	416.024353	1528.998291	596.827942	403.320312	1545.128540	200.344391	356.988281	1583.603027	397.719391	487.937103	1488.034424	395.562469	375.528320	1235.544434	681.922546	449.424896	958.855774	793.600769	381.981964	1245.168945	99.096687	439.085388	974.123047	-6.306477	325.062744	1027.992676	404.369415	467.916382	1094.527588	237.747894	476.525238	1100.183594	555.908630	520.278687	1037.041138	269.604889	533.150085	1034.010254	521.173462	346.630402	1067.587646	452.022980	345.194458	1075.487549	352.591003	420.703217	955.495667	577.361633	424.895782	943.846069	211.989212	433.792725	804.271362	593.294922	455.530762	718.435181	588.799744	492.544647	719.231201	580.583191	432.312622	635.040588	578.541138	436.436554	512.213074	559.598572	420.721832	500.065247	456.141418	397.346344	387.197083	593.871521	420.572815	301.282623	576.222961	397.569336	218.206879	569.543762	447.098236	306.071381	546.162903	392.388855	97.726654	555.711304	407.304321	122.417938	470.069641	321.387146	65.405571	507.933685	612.023254	79.079742	510.660431	535.368103	47.899731	577.134155	538.646545	47.798752	464.041504	441.835144	815.258667	189.753296	461.362274	730.116150	193.394806	497.675323	730.895386	201.751328	434.363586	645.674255	196.297714	429.280884	519.945618	217.394638	434.349091	496.621735	315.430817	381.834747	107.000244	221.613571	411.977875	126.483994	301.775055	325.095276	74.211700	264.405304	541.920288	47.243244	295.873138	528.739563	43.047951	181.164169	407.708191	394.198181	190.634659	421.638947	310.859314	207.831711	393.117188	226.549210	207.285767	443.082947	313.352661	240.234634	610.474548	81.726891	243.142380	
501	2.5050	415.985016	1529.007812	596.818970	403.283051	1545.122192	200.347565	356.961365	1583.602051	397.713989	487.909058	1488.041748	395.537262	375.513641	1235.542480	681.909058	449.391479	958.874634	793.585022	381.950897	1245.149048	99.092545	439.054504	974.111511	-6.302402	325.062225	1027.999512	404.362183	467.896118	1094.506592	237.755203	476.505829	1100.184082	555.917847	520.255066	1037.047119	269.614227	533.140198	1034.033325	521.171021	346.609039	1067.591797	452.030304	345.194489	1075.487549	352.591003	420.693390	955.491333	577.363464	424.893616	943.856201	211.996216	433.786072	804.266174	593.293518	455.496124	718.448547	588.814209	492.534241	719.243652	580.594177	432.296417	635.046326	578.531311	436.351288	512.130066	559.605591	420.705627	500.055420	456.140533	397.323364	387.200287	593.877319	420.556854	301.294434	576.230713	397.574432	218.209579	569.543518	447.099335	306.073242	546.164612	392.385101	97.740860	555.720154	407.296906	122.414421	470.068726	321.386261	65.397736	507.927643	612.038147	79.071358	510.673340	535.369080	47.899776	577.144958	538.671082	47.788074	464.057983	441.822632	815.265503	189.745865	461.348694	730.114990	193.438950	497.642487	730.902161	201.733704	434.347931	645.670654	196.308029	429.241638	519.949158	217.399994	434.322205	496.627899	315.429932	381.807220	106.994415	221.608505	411.977875	126.484001	301.775055	325.092590	74.201820	264.409576	541.921265	47.271843	295.870667	528.728027	43.059425	181.185959	407.690887	394.199646	190.626495	421.618561	310.858032	207.836929	393.111298	226.552841	207.286316	443.080170	313.357910	240.227768	610.460815	81.729309	243.132614	
502	2.5100	415.977325	1529.006836	596.806702	403.258026	1545.118286	200.337494	356.933990	1583.600342	397.706573	487.878326	1488.031006	395.547607	375.498962	1235.531006	681.913208	449.383514	958.871338	793.601501	381.919342	1245.150391	99.094582	439.011444	974.091675	-6.307546	325.040710	1028.004150	404.375244	467.856781	1094.524292	237.748154	476.480194	1100.193481	555.912231	520.241455	1037.051025	269.613647	533.138672	1034.020264	521.174072	346.582184	1067.606567	452.050476	345.168365	1075.490356	352.589508	420.686066	955.484497	577.365295	424.878510	943.855652	211.985107	433.770508	804.272034	593.303650	455.481140	718.447266	588.832214	492.511353	719.232239	580.585938	432.287781	635.045044	578.542358	436.344299	512.140564	559.613770	420.685455	500.063934	456.127502	397.307892	387.200745	593.877686	420.536041	301.293579	576.227295	397.564545	218.216202	569.549622	447.047485	306.061981	546.145569	392.393799	97.731964	555.710266	407.239197	122.431480	470.063751	321.398529	65.404991	507.949493	612.027710	79.071396	510.663239	535.369080	47.899792	577.144958	538.676392	47.813782	464.056061	441.814484	815.260315	189.772415	461.330566	730.137024	193.388290	497.611115	730.885132	201.751938	434.349335	645.670044	196.308533	429.384827	520.014099	217.384644	434.320862	496.629883	315.427155	381.803497	107.013374	221.609436	411.952789	126.479935	301.796906	325.100983	74.197701	264.404755	541.920349	47.243961	295.872375	528.705933	43.065117	181.171829	407.690643	394.199432	190.626221	421.613953	310.857422	207.853180	393.117065	226.549469	207.285034	443.056671	313.358124	240.218674	610.480347	81.729935	243.141510	
503	2.5150	415.950806	1528.996338	596.798828	403.204041	1545.094238	200.348724	356.914490	1583.611084	397.668488	487.848328	1488.035400	395.536957	375.465485	1235.536621	681.911438	449.365875	958.870300	793.598755	381.881409	1245.129395	99.095604	438.958923	974.085754	-6.314404	325.034271	1027.991333	404.365417	467.815521	1094.536011	237.751984	476.465332	1100.195679	555.917664	520.221802	1037.052124	269.606567	533.111450	1034.046021	521.195679	346.571106	1067.585449	452.059509	345.167450	1075.482910	352.593903	420.670776	955.488098	577.364441	424.863861	943.850220	211.989166	433.737885	804.276245	593.308655	455.459534	718.449036	588.850830	492.482391	719.241272	580.594788	432.284760	635.046387	578.536621	436.318695	512.121277	559.606628	420.676025	500.054779	456.151031	397.287567	387.201935	593.883789	420.533966	301.277679	576.220764	397.526947	218.213501	569.525391	447.059387	306.056274	546.154663	392.391632	97.753349	555.713257	407.292389	122.430428	470.061432	321.384308	65.399773	507.934998	612.040222	79.082993	510.668732	535.359131	47.909439	577.143127	538.642395	47.803699	464.063538	441.795654	815.269165	189.771423	461.322388	730.104431	193.415756	497.620789	730.870422	201.773041	434.332977	645.663513	196.312057	429.197357	519.929688	217.376236	434.309692	496.631378	315.432709	381.805389	106.990311	221.611435	411.959839	126.496132	301.792297	325.106323	74.191864	264.416077	541.910889	47.258133	295.873840	528.713562	43.073879	181.182083	407.658356	394.215851	190.631943	421.610962	310.864349	207.840012	393.111206	226.552902	207.286331	443.051514	313.374329	240.201492	610.474060	81.725174	243.128647	
